# Blender v3.6.4 OBJ File: ''
# www.blender.org
mtllib tangram.mtl
o Block1_Curve
v 0.045622 -0.000000 0.048016
v 0.065340 -0.000000 0.067730
v 0.025904 0.000000 0.067730
v 0.045622 0.010000 0.048016
v 0.065340 0.010000 0.067730
v 0.025904 0.010000 0.067730
vt 0.000000 0.000000
vt 0.500000 0.000000
vt 1.000000 0.000000
vt 0.000000 0.000000
vt 1.000000 0.000000
vt 0.500000 0.000000
vn -0.0000 -1.0000 0.0000
vn 0.0000 1.0000 -0.0000
vn 0.7070 0.0000 -0.7072
vn -0.7070 0.0000 -0.7072
vn 0.0000 0.0000 1.0000
usemtl SVGMat.001
s off
f 1/1/1 2/2/1 3/3/1
f 4/4/2 6/5/2 5/6/2
f 2/2/3 1/1/3 4/4/3 5/6/3
f 1/1/4 3/3/4 6/5/4 4/4/4
f 3/3/5 2/2/5 5/6/5 6/5/5
o Block2_Curve.001
v 0.002503 0.000000 0.091126
v 0.022364 0.000000 0.071269
v 0.065537 -0.000000 0.071269
v 0.045675 -0.000000 0.091126
v 0.002503 0.010000 0.091126
v 0.022364 0.010000 0.071269
v 0.065537 0.010000 0.071269
v 0.045675 0.010000 0.091126
vt 0.333333 0.000000
vt 1.000000 0.000000
vt 0.000000 0.000000
vt 0.666667 0.000000
vt 0.333333 0.000000
vt 0.000000 0.000000
vt 1.000000 0.000000
vt 0.666667 0.000000
vn -0.0000 -1.0000 0.0000
vn 0.0000 1.0000 -0.0000
vn 0.7070 0.0000 0.7072
vn -0.7070 0.0000 -0.7072
vn -0.0000 0.0000 -1.0000
vn -0.0000 0.0000 1.0000
usemtl SVGMat.002
s off
f 8/7/6 10/8/6 7/9/6
f 8/7/6 9/10/6 10/8/6
f 12/11/7 11/12/7 14/13/7
f 12/11/7 14/13/7 13/14/7
f 10/8/8 9/10/8 13/14/8 14/13/8
f 8/7/9 7/9/9 11/12/9 12/11/9
f 9/10/10 8/7/10 12/11/10 13/14/10
f 7/9/11 10/8/11 14/13/11 11/12/11
o Block3_Curve.002
v 0.069710 -0.000000 0.067096
v 0.091198 -0.000000 0.045613
v 0.069612 -0.000000 0.024031
v 0.048124 -0.000000 0.045515
v 0.069710 0.010000 0.067096
v 0.091198 0.010000 0.045613
v 0.069612 0.010000 0.024031
v 0.048124 0.010000 0.045515
vt 1.000000 0.000000
vt 0.333333 0.000000
vt 0.000000 0.000000
vt 0.666667 0.000000
vt 1.000000 0.000000
vt 0.000000 0.000000
vt 0.333333 0.000000
vt 0.666667 0.000000
vn -0.0000 -1.0000 0.0000
vn 0.0000 1.0000 -0.0000
vn -0.7070 0.0000 0.7072
vn 0.7070 0.0000 0.7072
vn 0.7070 0.0000 -0.7072
vn -0.7070 0.0000 -0.7072
usemtl SVGMat.003
s off
f 18/15/12 16/16/12 15/17/12
f 18/15/12 17/18/12 16/16/12
f 22/19/13 19/20/13 20/21/13
f 22/19/13 20/21/13 21/22/13
f 18/15/14 15/17/14 19/20/14 22/19/14
f 15/17/15 16/16/15 20/21/15 19/20/15
f 16/16/16 17/18/16 21/22/16 20/21/16
f 17/18/17 18/15/17 22/19/17 21/22/17
o Block4_Curve.003
v 0.091244 -0.000000 0.050572
v 0.091244 -0.000000 0.091126
v 0.050681 -0.000000 0.091126
v 0.091244 0.010000 0.050572
v 0.091244 0.010000 0.091126
v 0.050681 0.010000 0.091126
vt 0.000000 0.000000
vt 0.500000 0.000000
vt 1.000000 0.000000
vt 0.000000 0.000000
vt 1.000000 0.000000
vt 0.500000 0.000000
vn -0.0000 -1.0000 0.0000
vn 0.0000 1.0000 -0.0000
vn 1.0000 0.0000 0.0000
vn -0.7070 0.0000 -0.7072
vn 0.0000 0.0000 1.0000
usemtl SVGMat.004
s off
f 23/23/18 24/24/18 25/25/18
f 26/26/19 28/27/19 27/28/19
f 24/24/20 23/23/20 26/26/20 27/28/20
f 23/23/21 25/25/21 28/27/21 26/26/21
f 25/25/22 24/24/22 27/28/22 28/27/22
o Block5_Curve.004
v 0.043119 -0.000000 0.045514
v 0.000000 0.000000 0.088624
v 0.000000 0.000000 0.002404
v 0.043119 0.010000 0.045514
v 0.000000 0.010000 0.088624
v 0.000000 0.010000 0.002404
vt 1.000000 0.000000
vt 0.000000 0.000000
vt 0.500000 0.000000
vt 1.000000 0.000000
vt 0.500000 0.000000
vt 0.000000 0.000000
vn -0.0000 -1.0000 0.0000
vn 0.0000 1.0000 -0.0000
vn 0.7070 0.0000 0.7072
vn -1.0000 0.0000 0.0000
vn 0.7070 0.0000 -0.7072
usemtl SVGMat.005
s off
f 31/29/23 29/30/23 30/31/23
f 34/32/24 33/33/24 32/34/24
f 30/31/25 29/30/25 32/34/25 33/33/25
f 31/29/26 30/31/26 33/33/26 34/32/26
f 29/30/27 31/29/27 34/32/27 32/34/27
o Block6_Curve.005
v 0.072115 -0.000000 0.021528
v 0.091244 -0.000000 0.002404
v 0.091244 -0.000000 0.040652
v 0.072115 0.010000 0.021528
v 0.091244 0.010000 0.002404
v 0.091244 0.010000 0.040652
vt 0.000000 0.000000
vt 0.500000 0.000000
vt 1.000000 0.000000
vt 0.000000 0.000000
vt 1.000000 0.000000
vt 0.500000 0.000000
vn -0.0000 -1.0000 0.0000
vn 0.0000 1.0000 -0.0000
vn -0.7070 -0.0000 -0.7072
vn -0.7070 0.0000 0.7072
vn 1.0000 0.0000 0.0000
usemtl SVGMat.006
s off
f 35/35/28 36/36/28 37/37/28
f 38/38/29 40/39/29 39/40/29
f 36/36/30 35/35/30 38/38/30 39/40/30
f 35/35/31 37/37/31 40/39/31 38/38/31
f 37/37/32 36/36/32 39/40/32 40/39/32
o Block7_Curve.006
v 0.045622 -0.000000 0.043012
v 0.002503 -0.000000 -0.000098
v 0.088741 -0.000000 -0.000098
v 0.045622 0.010000 0.043012
v 0.002503 0.010000 -0.000098
v 0.088741 0.010000 -0.000098
vt 0.500000 0.000000
vt 1.000000 0.000000
vt 0.000000 0.000000
vt 0.500000 0.000000
vt 0.000000 0.000000
vt 1.000000 0.000000
vn -0.0000 -1.0000 0.0000
vn 0.0000 1.0000 -0.0000
vn -0.7070 0.0000 0.7072
vn -0.0000 -0.0000 -1.0000
vn 0.7070 0.0000 0.7072
usemtl SVGMat.007
s off
f 42/41/33 43/42/33 41/43/33
f 45/44/34 44/45/34 46/46/34
f 42/41/35 41/43/35 44/45/35 45/44/35
f 43/42/36 42/41/36 45/44/36 46/46/36
f 41/43/37 43/42/37 46/46/37 44/45/37
